<svg width="25" height="25" viewBox="0 0 25 25" fill="none" xmlns="http://www.w3.org/2000/svg">
<path d="M11 16V12L8 9L13 5L15 8H18M1 15C1 15.7956 1.31607 16.5587 1.87868 17.1213C2.44129 17.6839 3.20435 18 4 18C4.79565 18 5.55871 17.6839 6.12132 17.1213C6.68393 16.5587 7 15.7956 7 15C7 14.2044 6.68393 13.4413 6.12132 12.8787C5.55871 12.3161 4.79565 12 4 12C3.20435 12 2.44129 12.3161 1.87868 12.8787C1.31607 13.4413 1 14.2044 1 15ZM15 15C15 15.7956 15.3161 16.5587 15.8787 17.1213C16.4413 17.6839 17.2044 18 18 18C18.7956 18 19.5587 17.6839 20.1213 17.1213C20.6839 16.5587 21 15.7956 21 15C21 14.2044 20.6839 13.4413 20.1213 12.8787C19.5587 12.3161 18.7956 12 18 12C17.2044 12 16.4413 12.3161 15.8787 12.8787C15.3161 13.4413 15 14.2044 15 15ZM15 2C15 2.26522 15.1054 2.51957 15.2929 2.70711C15.4804 2.89464 15.7348 3 16 3C16.2652 3 16.5196 2.89464 16.7071 2.70711C16.8946 2.51957 17 2.26522 17 2C17 1.73478 16.8946 1.48043 16.7071 1.29289C16.5196 1.10536 16.2652 1 16 1C15.7348 1 15.4804 1.10536 15.2929 1.29289C15.1054 1.48043 15 1.73478 15 2Z" stroke="black" stroke-width="2" stroke-linecap="round" stroke-linejoin="round"/>
</svg>
