<svg width="24" height="24" viewBox="0 0 24 24" fill="none" xmlns="http://www.w3.org/2000/svg">
<path d="M12 23L6 17C4.64142 15.7848 3.68382 14.1858 3.25392 12.4145C2.82401 10.6432 2.94206 8.78309 3.59245 7.08035C4.24284 5.37761 5.39491 3.91248 6.89621 2.87883C8.39751 1.84519 10.1773 1.29175 12 1.29175C13.8227 1.29175 15.6025 1.84519 17.1038 2.87883C18.6051 3.91248 19.7572 5.37761 20.4076 7.08035C21.0579 8.78309 21.176 10.6432 20.7461 12.4145C20.3162 14.1858 19.3586 15.7848 18 17L12 23Z" stroke="black" stroke-width="2" stroke-linecap="round" stroke-linejoin="round"/>
<path d="M13.5687 6.27273V15H11.7235V8.02415H11.6724L9.67383 9.27699V7.64062L11.8343 6.27273H13.5687Z" fill="black"/>
</svg>
