<svg width="24" height="24" viewBox="0 0 24 24" fill="none" xmlns="http://www.w3.org/2000/svg">
<g clip-path="url(#clip0_63_142)">
<path d="M12.75 24C12.5511 24 12.3603 23.921 12.2197 23.7803C12.079 23.6397 12 23.4489 12 23.25V12H0.75002C0.579441 11.9998 0.414031 11.9414 0.281081 11.8345C0.148132 11.7277 0.0555852 11.5787 0.0187108 11.4121C-0.0181636 11.2456 0.00283706 11.0714 0.0782481 10.9184C0.153659 10.7654 0.278975 10.6427 0.43352 10.5705L22.9335 0.0704891C23.0731 0.00501038 23.2295 -0.0158454 23.3814 0.0107619C23.5333 0.0373693 23.6733 0.110147 23.7823 0.219182C23.8914 0.328218 23.9641 0.468212 23.9907 0.620099C24.0174 0.771986 23.9965 0.928382 23.931 1.06799L13.431 23.568C13.3708 23.6974 13.2748 23.807 13.1545 23.8838C13.0341 23.9606 12.8943 24.0014 12.7515 24.0015L12.75 24ZM4.13102 10.5H12.75C12.9489 10.5 13.1397 10.579 13.2804 10.7197C13.421 10.8603 13.5 11.0511 13.5 11.25V19.869L21.6975 2.30099L4.12952 10.4985L4.13102 10.5Z" fill="black"/>
</g>
<defs>
<clipPath id="clip0_63_142">
<rect width="24" height="24" fill="white"/>
</clipPath>
</defs>
</svg>
