<svg width="24" height="24" viewBox="0 0 24 24" fill="none" xmlns="http://www.w3.org/2000/svg">
<path d="M21 21L16.657 16.657M16.657 16.657C17.3999 15.9141 17.9892 15.0321 18.3912 14.0615C18.7933 13.0909 19.0002 12.0506 19.0002 11C19.0002 9.94936 18.7933 8.90905 18.3913 7.93842C17.9892 6.96779 17.3999 6.08585 16.657 5.34296C15.9141 4.60007 15.0322 4.01078 14.0616 3.60874C13.0909 3.20669 12.0506 2.99976 11 2.99976C9.94942 2.99976 8.90911 3.20669 7.93848 3.60874C6.96785 4.01078 6.08591 4.60007 5.34302 5.34296C3.84269 6.84329 2.99982 8.87818 2.99982 11C2.99982 13.1217 3.84269 15.1566 5.34302 16.657C6.84335 18.1573 8.87824 19.0002 11 19.0002C13.1218 19.0002 15.1567 18.1573 16.657 16.657Z" stroke="black" stroke-width="2.5" stroke-linecap="round" stroke-linejoin="round"/>
</svg>
