<svg width="24" height="24" viewBox="0 0 24 24" fill="none" xmlns="http://www.w3.org/2000/svg">
<path d="M0 24L12 0L24 24H0ZM2.22654 22.5H21.7735L12 3L2.22654 22.5ZM12.5618 20.151C12.7189 19.969 12.7974 19.752 12.7974 19.5C12.7974 19.248 12.7189 19.031 12.5618 18.849C12.4047 18.667 12.2175 18.5765 12 18.5775C11.7825 18.5785 11.5953 18.669 11.4382 18.849C11.2811 19.029 11.2026 19.246 11.2026 19.5C11.2026 19.754 11.2811 19.971 11.4382 20.151C11.5953 20.331 11.7825 20.4215 12 20.4225C12.2175 20.4235 12.4047 20.333 12.5618 20.151ZM11.3528 17.076H12.6472V9.576H11.3528V17.076Z" fill="#EF4444"/>
</svg>
